<svg width="138" height="61" viewBox="0 0 138 61" fill="none" xmlns="http://www.w3.org/2000/svg">
<path d="M0.394286 60.5797L4.66834 49.5397H6.4032L10.6457 60.5797H8.832L6.30857 53.9242C6.27703 53.8506 6.21394 53.6718 6.11931 53.3879C6.0352 53.1041 5.93531 52.7886 5.81966 52.4417C5.704 52.0947 5.59886 51.7793 5.50423 51.4954C5.4096 51.201 5.34651 51.0117 5.31497 50.9276L5.67771 50.9118C5.61463 51.0906 5.53577 51.3166 5.44114 51.59C5.35703 51.8634 5.2624 52.1525 5.15726 52.4574C5.06263 52.7623 4.968 53.0515 4.87337 53.3249C4.77874 53.5877 4.69989 53.8085 4.6368 53.9873L2.12914 60.5797H0.394286ZM2.28686 57.8355L2.91771 56.1953H7.93303L8.65851 57.8355H2.28686ZM12.5887 60.5797V49.5397H16.9101C17.6986 49.5397 18.4083 49.6711 19.0392 49.934C19.6806 50.1969 20.2273 50.5754 20.6794 51.0695C21.1315 51.5637 21.4785 52.1473 21.7203 52.8202C21.9622 53.4931 22.0831 54.2396 22.0831 55.0597C22.0831 55.8798 21.9622 56.6316 21.7203 57.315C21.4785 57.9879 21.1315 58.5715 20.6794 59.0657C20.2378 59.5493 19.6963 59.9226 19.055 60.1854C18.4136 60.4483 17.6986 60.5797 16.9101 60.5797H12.5887ZM14.292 59.113L14.2447 58.9395H16.8312C17.3885 58.9395 17.8826 58.8501 18.3137 58.6714C18.7553 58.4926 19.1233 58.2403 19.4177 57.9143C19.7226 57.5779 19.9539 57.1678 20.1117 56.6842C20.2694 56.2005 20.3482 55.659 20.3482 55.0597C20.3482 54.4604 20.2694 53.9242 20.1117 53.451C19.9539 52.9674 19.7226 52.5573 19.4177 52.2209C19.1128 51.8844 18.7448 51.6268 18.3137 51.4481C17.8826 51.2693 17.3885 51.1799 16.8312 51.1799H14.1974L14.292 51.038V59.113ZM24.3864 60.5797V49.5397H26.0582L30.0799 56.0849L29.2756 56.0691L33.3446 49.5397H34.9218V60.5797H33.2184V56.0533C33.2184 55.107 33.2395 54.2554 33.2815 53.4983C33.3341 52.7413 33.4182 51.9895 33.5339 51.243L33.7547 51.8266L30.143 57.4097H29.1021L25.6008 51.8897L25.7743 51.243C25.89 51.9475 25.9688 52.673 26.0109 53.4195C26.0635 54.1555 26.0898 55.0334 26.0898 56.0533V60.5797H24.3864ZM37.607 60.5797V59.0026H39.3891V51.1169H37.607V49.5397H42.8746V51.1169H41.0925V59.0026H42.8746V60.5797H37.607ZM45.5485 60.5797V49.5397H47.0783L53.8285 58.5767L53.5762 58.7187C53.5341 58.4558 53.4973 58.1719 53.4658 57.867C53.4342 57.5516 53.4027 57.2204 53.3711 56.8734C53.3501 56.5159 53.3291 56.1427 53.308 55.7537C53.2975 55.3541 53.287 54.9388 53.2765 54.5077C53.266 54.0766 53.2607 53.6298 53.2607 53.1671V49.5397H54.964V60.5797H53.4027L46.7629 51.8739L46.9364 51.6531C46.989 52.2945 47.031 52.8412 47.0626 53.2933C47.1046 53.7349 47.1362 54.1134 47.1572 54.4289C47.1887 54.7338 47.2098 54.9861 47.2203 55.1859C47.2308 55.3751 47.236 55.5329 47.236 55.659C47.2466 55.7852 47.2518 55.8956 47.2518 55.9902V60.5797H45.5485ZM66.9541 60.7374C66.1866 60.7374 65.4821 60.6007 64.8408 60.3274C64.1994 60.054 63.6421 59.665 63.169 59.1603C62.6959 58.6451 62.3279 58.0405 62.065 57.3466C61.8127 56.6526 61.6865 55.8903 61.6865 55.0597C61.6865 54.2711 61.8232 53.5404 62.0965 52.8675C62.3804 52.1841 62.7695 51.5847 63.2636 51.0695C63.7578 50.5543 64.3308 50.1548 64.9827 49.8709C65.6346 49.587 66.3391 49.4451 67.0961 49.4451C67.6323 49.4451 68.1528 49.5292 68.6575 49.6974C69.1727 49.8551 69.6353 50.0812 70.0453 50.3756C70.4659 50.6595 70.8076 50.9854 71.0705 51.3534L69.9349 52.5363C69.63 52.2314 69.3199 51.979 69.0044 51.7793C68.6995 51.569 68.3841 51.4113 68.0581 51.3061C67.7427 51.201 67.422 51.1484 67.0961 51.1484C66.5809 51.1484 66.0972 51.2483 65.6451 51.4481C65.2035 51.6373 64.8145 51.9054 64.478 52.2524C64.1521 52.5994 63.8945 53.0147 63.7052 53.4983C63.516 53.9715 63.4213 54.4919 63.4213 55.0597C63.4213 55.659 63.5107 56.2058 63.6895 56.6999C63.8787 57.1836 64.1416 57.5989 64.478 57.9459C64.8145 58.2929 65.214 58.561 65.6767 58.7502C66.1498 58.929 66.6703 59.0183 67.238 59.0183C67.585 59.0183 67.9267 58.971 68.2632 58.8764C68.5996 58.7818 68.9151 58.6451 69.2095 58.4663C69.5039 58.2876 69.772 58.0773 70.0138 57.8355L70.8655 59.2234C70.6236 59.5073 70.2924 59.7649 69.8719 59.9962C69.4618 60.2275 68.9992 60.4115 68.484 60.5482C67.9793 60.6743 67.4693 60.7374 66.9541 60.7374ZM77.8003 60.7374C77.0223 60.7374 76.302 60.5955 75.6396 60.3116C74.9878 60.0277 74.4147 59.6334 73.9206 59.1287C73.4369 58.6135 73.0584 58.0142 72.785 57.3308C72.5222 56.6369 72.3907 55.8798 72.3907 55.0597C72.3907 54.2396 72.5222 53.4878 72.785 52.8044C73.0584 52.1105 73.4369 51.5111 73.9206 51.0065C74.4147 50.4913 74.9878 50.0917 75.6396 49.8078C76.302 49.5239 77.0223 49.382 77.8003 49.382C78.5784 49.382 79.2934 49.5239 79.9452 49.8078C80.6076 50.0917 81.1807 50.4913 81.6643 51.0065C82.1585 51.5217 82.537 52.1262 82.7999 52.8202C83.0732 53.5036 83.2099 54.2501 83.2099 55.0597C83.2099 55.8693 83.0732 56.6211 82.7999 57.315C82.537 57.9985 82.1585 58.5978 81.6643 59.113C81.1807 59.6282 80.6076 60.0277 79.9452 60.3116C79.2934 60.5955 78.5784 60.7374 77.8003 60.7374ZM77.8003 59.0814C78.3366 59.0814 78.8255 58.9815 79.2671 58.7818C79.7192 58.582 80.1082 58.3034 80.4342 57.9459C80.7601 57.5779 81.0124 57.1521 81.1912 56.6684C81.3804 56.1742 81.4751 55.638 81.4751 55.0597C81.4751 54.4814 81.3804 53.9505 81.1912 53.4668C81.0124 52.9726 80.7601 52.5468 80.4342 52.1893C80.1082 51.8213 79.7192 51.5374 79.2671 51.3377C78.8255 51.1379 78.3366 51.038 77.8003 51.038C77.2641 51.038 76.7699 51.1379 76.3178 51.3377C75.8762 51.5374 75.4872 51.8161 75.1507 52.1735C74.8248 52.531 74.5724 52.9569 74.3937 53.451C74.215 53.9347 74.1256 54.4709 74.1256 55.0597C74.1256 55.638 74.215 56.1742 74.3937 56.6684C74.5724 57.1626 74.8248 57.5884 75.1507 57.9459C75.4872 58.3034 75.8762 58.582 76.3178 58.7818C76.7699 58.9815 77.2641 59.0814 77.8003 59.0814ZM85.5161 60.5797V49.5397H87.046L93.7961 58.5767L93.5438 58.7187C93.5017 58.4558 93.4649 58.1719 93.4334 57.867C93.4018 57.5516 93.3703 57.2204 93.3388 56.8734C93.3177 56.5159 93.2967 56.1427 93.2757 55.7537C93.2652 55.3541 93.2546 54.9388 93.2441 54.5077C93.2336 54.0766 93.2284 53.6298 93.2284 53.1671V49.5397H94.9317V60.5797H93.3703L86.7305 51.8739L86.904 51.6531C86.9566 52.2945 86.9986 52.8412 87.0302 53.2933C87.0722 53.7349 87.1038 54.1134 87.1248 54.4289C87.1564 54.7338 87.1774 54.9861 87.1879 55.1859C87.1984 55.3751 87.2037 55.5329 87.2037 55.659C87.2142 55.7852 87.2194 55.8956 87.2194 55.9902V60.5797H85.5161ZM101.429 60.7374C100.83 60.7374 100.272 60.6586 99.7572 60.5009C99.2526 60.3431 98.7899 60.1066 98.3694 59.7911C97.9593 59.4652 97.5913 59.0657 97.2654 58.5925L98.4324 57.2519C98.9476 57.9879 99.4418 58.4979 99.915 58.7818C100.388 59.0657 100.951 59.2076 101.602 59.2076C102.002 59.2076 102.365 59.1445 102.691 59.0183C103.017 58.8922 103.274 58.7187 103.464 58.4979C103.653 58.2771 103.747 58.0247 103.747 57.7409C103.747 57.5516 103.716 57.3729 103.653 57.2046C103.59 57.0364 103.49 56.8839 103.353 56.7473C103.227 56.6106 103.059 56.4844 102.848 56.3687C102.649 56.2531 102.412 56.1532 102.139 56.0691C101.865 55.9745 101.55 55.8956 101.192 55.8325C100.625 55.7169 100.13 55.5644 99.7099 55.3751C99.2894 55.1859 98.9371 54.9493 98.6532 54.6654C98.3694 54.3815 98.1591 54.0609 98.0224 53.7034C97.8857 53.3354 97.8174 52.9253 97.8174 52.4732C97.8174 52.0316 97.912 51.6215 98.1012 51.243C98.301 50.8645 98.5691 50.5386 98.9056 50.2652C99.2526 49.9813 99.6574 49.7658 100.12 49.6186C100.583 49.4609 101.082 49.382 101.618 49.382C102.186 49.382 102.706 49.4556 103.18 49.6028C103.653 49.75 104.073 49.9708 104.441 50.2652C104.809 50.5491 105.114 50.9013 105.356 51.3219L104.157 52.5047C103.947 52.1578 103.711 51.8686 103.448 51.6373C103.185 51.3955 102.896 51.2167 102.58 51.1011C102.265 50.9749 101.928 50.9118 101.571 50.9118C101.161 50.9118 100.803 50.9749 100.498 51.1011C100.194 51.2273 99.9518 51.406 99.773 51.6373C99.6048 51.8581 99.5207 52.121 99.5207 52.4259C99.5207 52.6467 99.5627 52.8517 99.6468 53.041C99.731 53.2197 99.8571 53.3827 100.025 53.5299C100.204 53.6666 100.441 53.7927 100.735 53.9084C101.029 54.0135 101.382 54.1082 101.792 54.1923C102.37 54.3185 102.885 54.4814 103.337 54.6812C103.789 54.8705 104.173 55.0965 104.489 55.3594C104.804 55.6222 105.041 55.9166 105.198 56.2426C105.367 56.5685 105.451 56.9207 105.451 57.2993C105.451 58.0037 105.288 58.6135 104.962 59.1287C104.636 59.6439 104.173 60.0435 103.574 60.3274C102.975 60.6007 102.26 60.7374 101.429 60.7374ZM112.485 60.7374C111.707 60.7374 110.987 60.5955 110.324 60.3116C109.673 60.0277 109.1 59.6334 108.605 59.1287C108.122 58.6135 107.743 58.0142 107.47 57.3308C107.207 56.6369 107.076 55.8798 107.076 55.0597C107.076 54.2396 107.207 53.4878 107.47 52.8044C107.743 52.1105 108.122 51.5111 108.605 51.0065C109.1 50.4913 109.673 50.0917 110.324 49.8078C110.987 49.5239 111.707 49.382 112.485 49.382C113.263 49.382 113.978 49.5239 114.63 49.8078C115.292 50.0917 115.865 50.4913 116.349 51.0065C116.843 51.5217 117.222 52.1262 117.485 52.8202C117.758 53.5036 117.895 54.2501 117.895 55.0597C117.895 55.8693 117.758 56.6211 117.485 57.315C117.222 57.9985 116.843 58.5978 116.349 59.113C115.865 59.6282 115.292 60.0277 114.63 60.3116C113.978 60.5955 113.263 60.7374 112.485 60.7374ZM112.485 59.0814C113.021 59.0814 113.51 58.9815 113.952 58.7818C114.404 58.582 114.793 58.3034 115.119 57.9459C115.445 57.5779 115.697 57.1521 115.876 56.6684C116.065 56.1742 116.16 55.638 116.16 55.0597C116.16 54.4814 116.065 53.9505 115.876 53.4668C115.697 52.9726 115.445 52.5468 115.119 52.1893C114.793 51.8213 114.404 51.5374 113.952 51.3377C113.51 51.1379 113.021 51.038 112.485 51.038C111.949 51.038 111.455 51.1379 111.003 51.3377C110.561 51.5374 110.172 51.8161 109.836 52.1735C109.51 52.531 109.257 52.9569 109.079 53.451C108.9 53.9347 108.81 54.4709 108.81 55.0597C108.81 55.638 108.9 56.1742 109.079 56.6684C109.257 57.1626 109.51 57.5884 109.836 57.9459C110.172 58.3034 110.561 58.582 111.003 58.7818C111.455 58.9815 111.949 59.0814 112.485 59.0814ZM120.201 60.5797V49.5397H121.904V58.9395H127.077V60.5797H120.201ZM129.642 60.5797V49.5397H136.597V51.1799H131.346V58.9395H136.597V60.5797H129.642ZM130.415 55.7379V54.0977H135.73V55.7379H130.415Z" fill="#222E50"/>
<path d="M48.4252 32.4219L47.6653 31.9527V32.8457V42.4578C47.6653 42.7989 47.419 43.0012 47.2113 43.0012H44.0928C43.885 43.0012 43.6387 42.7989 43.6387 42.4578V14.5024C43.6387 14.159 43.8807 13.9589 44.0928 13.9589H46.1505C46.9462 13.9589 47.6653 14.6785 47.6653 15.6628V17.0284L48.5446 15.9835C49.3898 14.9791 50.9441 13.4136 53.9787 13.4136C55.9892 13.4136 58.055 14.5149 59.6271 16.371C61.1945 18.2216 62.2376 20.788 62.2162 23.6353V23.6354C62.1794 28.5755 58.7849 32.8096 54.4055 33.6212L54.0724 33.683C52.0021 33.9798 50.0836 33.4459 48.4252 32.4219ZM52.9307 17.8491C49.988 17.8491 47.6653 20.457 47.6653 23.5622C47.6653 26.6674 49.988 29.2753 52.9307 29.2753C55.8734 29.2753 58.196 26.6674 58.196 23.5622C58.196 20.4574 55.8802 17.8491 52.9307 17.8491Z" stroke="url(#paint0_linear_277_2)" stroke-width="0.996233"/>
<path d="M76.0578 13.6269L76.0568 13.6267C75.8115 13.5751 75.6872 13.5542 75.5675 13.5438C75.4427 13.5329 75.3133 13.5325 75.0475 13.5325H75.0422C74.3457 13.5357 73.6398 13.8612 72.9944 14.3095C72.3704 14.7429 71.855 15.2537 71.5131 15.5926C71.5043 15.6012 71.4957 15.6098 71.4871 15.6183L70.6384 16.4591V15.2644V14.4955C70.6384 14.1613 70.3985 13.966 70.1972 13.966H67.0595C66.8581 13.966 66.6182 14.1613 66.6182 14.4955V32.7479C66.6182 33.0821 66.8581 33.2774 67.0595 33.2774H70.1972C70.3985 33.2774 70.6384 33.0821 70.6384 32.7479V22.4228C70.6384 20.2304 72.1227 18.1907 74.2498 17.9775L76.0578 13.6269ZM76.0578 13.6269C76.2013 13.6568 76.3578 13.8136 76.3578 14.062V17.7321C76.3578 17.8883 76.2895 18.0185 76.2011 18.0952C76.1161 18.1689 76.0295 18.1836 75.9517 18.159L75.9501 18.1585M76.0578 13.6269L75.9501 18.1585M75.9501 18.1585C75.3974 17.9857 74.806 17.9215 74.2499 17.9775L75.9501 18.1585Z" stroke="url(#paint1_linear_277_2)" stroke-width="0.996233"/>
<path d="M97.4271 23.667C97.4271 29.335 93.2188 33.8715 88.1416 33.8715C83.0643 33.8715 78.856 29.335 78.856 23.667C78.856 17.9988 83.0581 13.4625 88.1416 13.4625C93.225 13.4625 97.4271 17.9988 97.4271 23.667ZM93.4069 23.667C93.4069 20.5618 91.0842 17.9539 88.1416 17.9539C85.1989 17.9539 82.8762 20.5618 82.8762 23.667C82.8762 26.7722 85.1989 29.3801 88.1416 29.3801C91.0842 29.3801 93.4069 26.7722 93.4069 23.667Z" stroke="url(#paint2_linear_277_2)" stroke-width="0.996233"/>
<path d="M120.177 23.667C120.177 29.335 115.968 33.8715 110.891 33.8715C105.814 33.8715 101.606 29.335 101.606 23.667C101.606 17.9988 105.808 13.4625 110.891 13.4625C115.974 13.4625 120.177 17.9988 120.177 23.667ZM116.156 23.667C116.156 20.5618 113.834 17.9539 110.891 17.9539C107.948 17.9539 105.626 20.5618 105.626 23.667C105.626 26.7722 107.948 29.3801 110.891 29.3801C113.834 29.3801 116.156 26.7722 116.156 23.667Z" stroke="url(#paint3_linear_277_2)" stroke-width="0.996233"/>
<path d="M132.45 1.43852L132.45 1.43851C134.321 1.37395 136.074 2.14649 137.375 3.57584L137.376 3.57668C137.557 3.77481 137.53 4.1374 137.32 4.30877L137.318 4.31017L134.679 6.48424L134.679 6.48423L134.676 6.48691C134.528 6.61092 134.371 6.59253 134.287 6.52186L134.285 6.52024C133.795 6.11434 133.192 5.90615 132.554 5.92338L132.554 5.92333L132.547 5.92362C131.02 5.98648 129.979 7.44125 129.979 8.93094V12.0068V12.3021L130.024 12.3266C130.156 12.9637 130.682 13.4836 131.379 13.4836H134.063C134.238 13.4836 134.453 13.651 134.453 13.9572V17.5014C134.453 17.8076 134.238 17.975 134.063 17.975H131.379C130.57 17.975 129.992 18.6744 129.992 19.4448V32.7968C129.992 33.103 129.778 33.2704 129.602 33.2704H126.362C126.186 33.2704 125.972 33.103 125.972 32.7968V19.4448C125.972 18.6744 125.394 17.975 124.586 17.975H123.902C123.726 17.975 123.512 17.8076 123.512 17.5014V13.9572C123.512 13.651 123.726 13.4836 123.902 13.4836H124.586C125.394 13.4836 125.972 12.7841 125.972 12.0138V9.07075C125.972 4.98321 128.861 1.56022 132.45 1.43852Z" stroke="url(#paint4_linear_277_2)" stroke-width="0.996233"/>
<path d="M6.69629 5.22595C8.11495 5.22595 9.0799 6.53319 8.84345 8.13404C8.60701 9.73488 7.24586 11.0421 5.82081 11.0421C4.39576 11.0421 3.43081 9.73488 3.67365 8.13404C3.91648 6.53319 5.27763 5.22595 6.69629 5.22595ZM2.81095 14.6353C2.88124 14.1599 3.29661 13.7685 3.72477 13.7685H7.10527C7.53343 13.7685 7.82738 14.1599 7.75709 14.6353L5.03479 32.8947C4.9645 33.3701 4.54913 33.7615 4.11458 33.7615H0.670174C0.235629 33.7615 -0.0647179 33.3701 0.0119664 32.8947L2.80456 14.6353H2.81095Z" fill="url(#paint5_linear_277_2)"/>
<path d="M38.9861 22.2759L37.7016 32.7198C37.6313 33.2931 37.1457 33.7614 36.6216 33.7614H33.5095C32.9855 33.7614 32.6149 33.2931 32.6916 32.7198L34.0208 22.2759C34.2892 20.1717 33.1261 18.452 31.4263 18.452C29.7264 18.452 28.1225 20.1647 27.8413 22.2759L26.461 32.7198C26.3843 33.2931 25.8986 33.7614 25.3682 33.7614H22.2561C21.7321 33.7614 21.3678 33.2931 21.4445 32.7198L22.8696 22.2759C23.1571 20.1717 22.0133 18.452 20.3134 18.452C18.6136 18.452 16.9904 20.1647 16.6965 22.2759L15.2139 32.7198C15.1308 33.2931 14.6388 33.7614 14.1148 33.7614H11.0027C10.4787 33.7614 10.1208 33.2931 10.2039 32.7198L12.8623 14.4954C12.9453 13.9221 13.431 13.4538 13.9486 13.4538H16.1022C17.0352 13.4538 17.6742 14.2926 17.5272 15.3342C18.4347 14.6911 19.5019 13.3839 21.2592 13.1881C23.4319 12.9434 25.0487 13.9641 26.2693 15.5789C27.9244 13.9711 30.0012 12.9644 32.1484 12.9644C36.5577 12.9644 39.6315 17.1448 38.9989 22.2759H38.9861Z" fill="url(#paint6_linear_277_2)"/>
<defs>
<linearGradient id="paint0_linear_277_2" x1="52.9276" y1="12.9155" x2="52.9276" y2="43.4994" gradientUnits="userSpaceOnUse">
<stop stop-color="#222E50"/>
<stop offset="0.479167" stop-color="#007991"/>
<stop offset="1" stop-color="#439A86"/>
</linearGradient>
<linearGradient id="paint1_linear_277_2" x1="71.488" y1="13.0344" x2="71.488" y2="33.7755" gradientUnits="userSpaceOnUse">
<stop stop-color="#222E50"/>
<stop offset="0.479167" stop-color="#007991"/>
<stop offset="1" stop-color="#439A86"/>
</linearGradient>
<linearGradient id="paint2_linear_277_2" x1="88.1416" y1="12.9644" x2="88.1416" y2="34.3696" gradientUnits="userSpaceOnUse">
<stop stop-color="#222E50"/>
<stop offset="0.479167" stop-color="#007991"/>
<stop offset="1" stop-color="#439A86"/>
</linearGradient>
<linearGradient id="paint3_linear_277_2" x1="110.891" y1="12.9644" x2="110.891" y2="34.3696" gradientUnits="userSpaceOnUse">
<stop stop-color="#222E50"/>
<stop offset="0.479167" stop-color="#007991"/>
<stop offset="1" stop-color="#439A86"/>
</linearGradient>
<linearGradient id="paint4_linear_277_2" x1="130.504" y1="0.936646" x2="130.504" y2="33.7685" gradientUnits="userSpaceOnUse">
<stop stop-color="#222E50"/>
<stop offset="0.479167" stop-color="#007991"/>
<stop offset="1" stop-color="#439A86"/>
</linearGradient>
<linearGradient id="paint5_linear_277_2" x1="30.9159" y1="8.17894" x2="-2.32806" y2="34.7676" gradientUnits="userSpaceOnUse">
<stop stop-color="#222E50"/>
<stop offset="0.416667" stop-color="#007991"/>
<stop offset="0.744792" stop-color="#439A86"/>
<stop offset="0.979167" stop-color="#BCD8C1"/>
</linearGradient>
<linearGradient id="paint6_linear_277_2" x1="33.2851" y1="15.6828" x2="12.5532" y2="38.989" gradientUnits="userSpaceOnUse">
<stop stop-color="#222E50"/>
<stop offset="0.416667" stop-color="#007991"/>
<stop offset="0.744792" stop-color="#439A86"/>
<stop offset="0.979167" stop-color="#BCD8C1"/>
</linearGradient>
</defs>
</svg>