<svg width="21" height="20" viewBox="0 0 21 20" fill="none" xmlns="http://www.w3.org/2000/svg">
<g clip-path="url(#clip0_491_7180)">
<g clip-path="url(#clip1_491_7180)">
<path d="M19.9214 1.34326H1.09327C0.76967 1.34326 0.507324 1.60561 0.507324 1.9292V15.3065C0.507324 15.6301 0.76967 15.8924 1.09327 15.8924H5.97518C6.4085 15.8615 6.80362 16.2418 6.79229 16.6815C6.80136 17.1009 6.44385 17.4725 6.02811 17.4845H4.21845C3.89485 17.4845 3.6325 17.7468 3.6325 18.0704C3.6325 18.394 3.89485 18.6564 4.21845 18.6564H16.7962C17.1198 18.6564 17.3821 18.394 17.3821 18.0704C17.3821 17.7468 17.1198 17.4845 16.7962 17.4845H14.9865C14.5708 17.4725 14.2133 17.1009 14.2224 16.6815C14.211 16.2417 14.6061 15.8616 15.0395 15.8925H19.9214C20.245 15.8925 20.5073 15.6301 20.5073 15.3065V1.9292C20.5073 1.60561 20.245 1.34326 19.9214 1.34326ZM11.2708 4.26575H11.4382V4.09836C11.4382 3.77477 11.7006 3.51242 12.0242 3.51242C12.3478 3.51242 12.6101 3.77477 12.6101 4.09836V4.26575H12.7775C13.1011 4.26575 13.3634 4.52809 13.3634 4.85169C13.3634 5.17528 13.1011 5.43763 12.7775 5.43763H12.6101V5.60501C12.6101 5.92861 12.3478 6.19096 12.0242 6.19096C11.7006 6.19096 11.4382 5.92861 11.4382 5.60501V5.43763H11.2708C10.9472 5.43763 10.6849 5.17528 10.6849 4.85169C10.6849 4.52809 10.9472 4.26575 11.2708 4.26575ZM2.80105 7.68261C2.80105 7.35901 3.0634 7.09667 3.387 7.09667H3.55438V6.92928C3.55438 6.60569 3.81673 6.34334 4.14032 6.34334C4.46392 6.34334 4.72626 6.60569 4.72626 6.92928V7.09667H4.89361C5.21721 7.09667 5.47955 7.35901 5.47955 7.68261C5.47955 8.0062 5.21721 8.26855 4.89361 8.26855H4.72626V8.43593C4.72626 8.75953 4.46392 9.02188 4.14032 9.02188C3.81673 9.02188 3.55438 8.75953 3.55438 8.43593V8.26855H3.387C3.06336 8.26855 2.80105 8.0062 2.80105 7.68261ZM9.45509 11.6425C9.77869 11.6425 10.041 11.9048 10.041 12.2284C10.041 12.552 9.77869 12.8144 9.45509 12.8144H9.28771V12.9818C9.28771 13.3053 9.02536 13.5677 8.70176 13.5677C8.37817 13.5677 8.11582 13.3053 8.11582 12.9818V12.8144H7.94848C7.62488 12.8144 7.36253 12.552 7.36253 12.2284C7.36253 11.9048 7.62488 11.6425 7.94848 11.6425H8.11582V11.4751C8.11582 11.1515 8.37817 10.8892 8.70176 10.8892C9.02536 10.8892 9.28771 11.1515 9.28771 11.4751V11.6425H9.45509ZM16.631 11.2128H16.4637V11.3802C16.4637 11.7038 16.2014 11.9661 15.8778 11.9661C15.5542 11.9661 15.2918 11.7038 15.2918 11.3802V11.2128H15.1244C14.8008 11.2128 14.5385 10.9504 14.5385 10.6268C14.5385 10.3033 14.8008 10.0409 15.1244 10.0409H15.2918V9.87352C15.2918 9.54993 15.5542 9.28758 15.8778 9.28758C16.2014 9.28758 16.4637 9.54993 16.4637 9.87352V10.0409H16.631C16.9546 10.0409 17.217 10.3033 17.217 10.6268C17.217 10.9504 16.9546 11.2128 16.631 11.2128ZM18.0167 7.43464C18.0167 7.75823 17.7543 8.02058 17.4307 8.02058C17.1071 8.02058 16.8448 7.75823 16.8448 7.43464V6.1381L12.08 10.9029C11.9702 11.0128 11.8211 11.0745 11.6657 11.0745C11.5103 11.0745 11.3613 11.0128 11.2514 10.9029L8.87106 8.5225L3.99821 13.3952C3.8838 13.5096 3.73379 13.5669 3.58391 13.5669C3.43395 13.5669 3.28399 13.5097 3.16961 13.3952C2.94078 13.1664 2.94078 12.7954 3.16961 12.5666L8.45672 7.27952C8.56657 7.1696 8.71563 7.10788 8.87106 7.10788C9.02649 7.10788 9.17552 7.16964 9.28536 7.27952L11.6658 9.65993L16.0162 5.30946H14.7004C14.3768 5.30946 14.1145 5.04712 14.1145 4.72352C14.1145 4.39993 14.3768 4.13758 14.7004 4.13758H17.4308C17.7544 4.13758 18.0167 4.39993 18.0167 4.72352V7.43464H18.0167Z" fill="#BCD8C1"/>
</g>
</g>
<defs>
<clipPath id="clip0_491_7180">
<rect width="20" height="20" fill="white" transform="translate(0.507324)"/>
</clipPath>
<clipPath id="clip1_491_7180">
<rect width="20" height="20" fill="white" transform="translate(0.507324)"/>
</clipPath>
</defs>
</svg>
