<svg width="13" height="20" viewBox="0 0 13 20" fill="none" xmlns="http://www.w3.org/2000/svg">
<path d="M12.4832 5.5452V3.75865C12.4832 3.435 12.2208 3.17261 11.8972 3.17261H0.586047C0.262393 3.17261 0 3.435 0 3.75865V5.5452H12.4832Z" fill="#439A86"/>
<path d="M4.68555 17.761H7.7984V19.9999H4.68555V17.761Z" fill="#439A86"/>
<path d="M0 6.71533V19.3757C0 19.7204 0.279427 19.9999 0.624179 19.9999H3.51312V17.7595C3.20384 17.7434 2.95782 17.4883 2.95782 17.175C2.95782 16.8513 3.22021 16.5889 3.54387 16.5889H8.93941C9.26306 16.5889 9.52546 16.8513 9.52546 17.175C9.52546 17.4883 9.27944 17.7434 8.97016 17.7595V19.9999H11.8591C12.2038 19.9999 12.4832 19.7205 12.4832 19.3757V6.71533H0Z" fill="#439A86"/>
<path d="M4.68479 2.00053V1.17209H7.79764V2.00053H8.96973V0.586047C8.96973 0.262393 8.70734 0 8.38369 0H4.09874C3.77509 0 3.5127 0.262393 3.5127 0.586047V2.00053H4.68479Z" fill="#439A86"/>
</svg>
